<svg xmlns="http://www.w3.org/2000/svg" xmlns:xlink="http://www.w3.org/1999/xlink" contentStyleType="text/css" data-diagram-type="DESCRIPTION" height="638px" preserveAspectRatio="none" style="width:759px;height:638px;background:#1B1B1B;" version="1.1" viewBox="0 0 759 638" width="759px" zoomAndPan="magnify"><defs/><g><rect fill="#1B1B1B" height="638" style="stroke:#FFFFFF00;stroke-width:1;" width="759" x="0" y="0"/><!--cluster React Frontend--><g id="cluster_React Frontend"><rect fill="#FFFFFF" fill-opacity="0.00000" height="87.3" rx="2.5" ry="2.5" style="stroke:#E7E7E7;stroke-width:1;" width="333" x="115" y="106.8"/><text fill="#FFFFFF" font-family="sans-serif" font-size="14" font-weight="bold" lengthAdjust="spacing" textLength="121.8164" x="220.5918" y="121.7951">React Frontend</text></g><!--cluster Node.js Backend--><g id="cluster_Node.js Backend"><rect fill="#FFFFFF" fill-opacity="0.00000" height="313.33" rx="2.5" ry="2.5" style="stroke:#E7E7E7;stroke-width:1;" width="361" x="7" y="218.1"/><text fill="#FFFFFF" font-family="sans-serif" font-size="14" font-weight="bold" lengthAdjust="spacing" textLength="131.3867" x="121.8066" y="233.0951">Node.js Backend</text></g><!--cluster KAFKA--><g id="cluster_KAFKA"><polygon fill="#FFFFFF" fill-opacity="0.00000" points="392,440.99,402,430.99,574,430.99,574,513.28,564,523.28,392,523.28,392,440.99" style="stroke:#E7E7E7;stroke-width:1;"/><line style="stroke:#E7E7E7;stroke-width:1;" x1="564" x2="574" y1="440.99" y2="430.99"/><line style="stroke:#E7E7E7;stroke-width:1;" x1="392" x2="564" y1="440.99" y2="440.99"/><line style="stroke:#E7E7E7;stroke-width:1;" x1="564" x2="564" y1="440.99" y2="523.28"/><text fill="#FFFFFF" font-family="sans-serif" font-size="14" font-weight="bold" lengthAdjust="spacing" textLength="106.4834" x="425.7583" y="456.9851">Kafka Cluster</text></g><!--entity Video Upload Form--><g id="elem_Video Upload Form"><rect fill="#313139" height="36.2969" rx="2.5" ry="2.5" style="stroke:#E7E7E7;stroke-width:0.5;" width="153.499" x="131.25" y="141.8"/><text fill="#FFFFFF" font-family="sans-serif" font-size="14" lengthAdjust="spacing" textLength="133.499" x="141.25" y="164.7951">Video Upload Form</text></g><!--entity Video Viewer--><g id="elem_Video Viewer"><rect fill="#313139" height="36.2969" rx="2.5" ry="2.5" style="stroke:#E7E7E7;stroke-width:0.5;" width="111.8818" x="320.06" y="141.8"/><text fill="#FFFFFF" font-family="sans-serif" font-size="14" lengthAdjust="spacing" textLength="91.8818" x="330.06" y="164.7951">Video Viewer</text></g><!--entity API Gateway--><g id="elem_API Gateway"><rect fill="#313139" height="36.2969" rx="2.5" ry="2.5" style="stroke:#E7E7E7;stroke-width:0.5;" width="108.4434" x="237.78" y="253.1"/><text fill="#FFFFFF" font-family="sans-serif" font-size="14" lengthAdjust="spacing" textLength="88.4434" x="247.78" y="276.0951">API Gateway</text></g><!--entity Transcoding Service--><g id="elem_Transcoding Service"><rect fill="#313139" height="52.5938" rx="2.5" ry="2.5" style="stroke:#E7E7E7;stroke-width:0.5;" width="162.0439" x="22.98" y="349.39"/><text fill="#FFFFFF" font-family="sans-serif" font-size="14" font-style="italic" lengthAdjust="spacing" textLength="73.2607" x="67.3716" y="372.3851">&#171;FFmpeg&#187;</text><text fill="#FFFFFF" font-family="sans-serif" font-size="14" lengthAdjust="spacing" textLength="142.0439" x="32.98" y="388.682">Transcoding Service</text></g><!--entity Batch Processor--><g id="elem_Batch Processor"><rect fill="#313139" height="52.5938" rx="2.5" ry="2.5" style="stroke:#E7E7E7;stroke-width:0.5;" width="132.6768" x="219.66" y="349.39"/><text fill="#FFFFFF" font-family="sans-serif" font-size="14" font-style="italic" lengthAdjust="spacing" textLength="56.5059" x="257.7454" y="372.3851">&#171;Kafka&#187;</text><text fill="#FFFFFF" font-family="sans-serif" font-size="14" lengthAdjust="spacing" textLength="112.6768" x="229.66" y="388.682">Batch Processor</text></g><!--entity Metadata Manager--><g id="elem_Metadata Manager"><rect fill="#313139" height="52.5938" rx="2.5" ry="2.5" style="stroke:#E7E7E7;stroke-width:0.5;" width="152.1113" x="113.94" y="462.84"/><text fill="#FFFFFF" font-family="sans-serif" font-size="14" font-style="italic" lengthAdjust="spacing" textLength="84.4854" x="147.753" y="485.8351">&#171;MongoDB&#187;</text><text fill="#FFFFFF" font-family="sans-serif" font-size="14" lengthAdjust="spacing" textLength="132.1113" x="123.94" y="502.132">Metadata Manager</text></g><!--entity Message Queue--><g id="elem_Message Queue"><rect fill="#313139" height="36.2969" rx="2.5" ry="2.5" style="stroke:#E7E7E7;stroke-width:0.5;" width="131.8018" x="408.1" y="470.99"/><text fill="#FFFFFF" font-family="sans-serif" font-size="14" lengthAdjust="spacing" textLength="111.8018" x="418.1" y="493.9851">Message Queue</text></g><!--entity User--><g id="elem_User"><ellipse cx="291.9951" cy="14" fill="#313139" rx="8" ry="8" style="stroke:#E7E7E7;stroke-width:0.5;"/><path d="M291.9951,22 L291.9951,49 M278.9951,30 L304.9951,30 M291.9951,49 L278.9951,64 M291.9951,49 L304.9951,64 " fill="#FFFFFF" fill-opacity="0.00000" style="stroke:#E7E7E7;stroke-width:0.5;"/><text fill="#FFFFFF" font-family="sans-serif" font-size="14" lengthAdjust="spacing" textLength="31.9102" x="276.04" y="78.4951">User</text></g><!--entity DB--><g id="elem_DB"><path d="M472.32,586.28 C472.32,576.28 515.9972,576.28 515.9972,576.28 C515.9972,576.28 559.6745,576.28 559.6745,586.28 L559.6745,611.5769 C559.6745,621.5769 515.9972,621.5769 515.9972,621.5769 C515.9972,621.5769 472.32,621.5769 472.32,611.5769 L472.32,586.28 " fill="#313139" style="stroke:#E7E7E7;stroke-width:0.5;"/><path d="M472.32,586.28 C472.32,596.28 515.9972,596.28 515.9972,596.28 C515.9972,596.28 559.6745,596.28 559.6745,586.28 " fill="#FFFFFF" fill-opacity="0.00000" style="stroke:#E7E7E7;stroke-width:0.5;"/><text fill="#FFFFFF" font-family="sans-serif" font-size="14" lengthAdjust="spacing" textLength="67.3545" x="482.32" y="613.2751">MongoDB</text></g><!--entity STORAGE--><g id="elem_STORAGE"><path d="M592.66,461.99 L633.66,461.99 A3.75,3.75 0 0 1 636.16,464.49 L643.16,482.99 L701.3319,482.99 A2.5,2.5 0 0 1 703.8319,485.49 L703.8319,513.7869 A2.5,2.5 0 0 1 701.3319,516.2869 L592.66,516.2869 A2.5,2.5 0 0 1 590.16,513.7869 L590.16,464.49 A2.5,2.5 0 0 1 592.66,461.99 " fill="#313139" style="stroke:#E7E7E7;stroke-width:0.5;"/><line style="stroke:#E7E7E7;stroke-width:0.5;" x1="590.16" x2="643.16" y1="482.99" y2="482.99"/><text fill="#FFFFFF" font-family="sans-serif" font-size="14" lengthAdjust="spacing" textLength="83.6719" x="600.16" y="502.9851">File Storage</text></g><!--link User to Video Upload Form--><g id="link_User_Video Upload Form"><path d="M275.6,66.96 C259.56,88.79 239.0122,116.7445 224.3422,136.7145 " fill="#FFFFFF" fill-opacity="0.00000" id="User-to-Video Upload Form" style="stroke:#E7E7E7;stroke-width:1;"/><polygon fill="#E7E7E7" points="220.79,141.55,229.3419,136.6649,223.7501,137.5204,222.8946,131.9286,220.79,141.55" style="stroke:#E7E7E7;stroke-width:1;"/></g><!--link Video Upload Form to API Gateway--><g id="link_Video Upload Form_API Gateway"><path d="M221.5,178.51 C237.17,198.9 259.2242,227.5923 274.8842,247.9723 " fill="#FFFFFF" fill-opacity="0.00000" id="Video Upload Form-to-API Gateway" style="stroke:#E7E7E7;stroke-width:1;"/><polygon fill="#E7E7E7" points="278.54,252.73,276.2281,243.1563,275.4935,248.7653,269.8846,248.0307,278.54,252.73" style="stroke:#E7E7E7;stroke-width:1;"/></g><!--link API Gateway to Transcoding Service--><g id="link_API Gateway_Transcoding Service"><path d="M259.68,289.86 C229.76,306.16 190.1787,327.7293 156.2987,346.1893 " fill="#FFFFFF" fill-opacity="0.00000" id="API Gateway-to-Transcoding Service" style="stroke:#E7E7E7;stroke-width:1;"/><polygon fill="#E7E7E7" points="151.03,349.06,160.8468,348.2664,155.4206,346.6677,157.0192,341.2415,151.03,349.06" style="stroke:#E7E7E7;stroke-width:1;"/></g><!--link API Gateway to Batch Processor--><g id="link_API Gateway_Batch Processor"><path d="M290.98,289.62 C290.03,305.95 288.9285,324.5901 287.8485,343.1501 " fill="#FFFFFF" fill-opacity="0.00000" id="API Gateway-to-Batch Processor" style="stroke:#E7E7E7;stroke-width:1;"/><polygon fill="#E7E7E7" points="287.5,349.14,292.0161,340.3876,287.7905,344.1484,284.0296,339.9228,287.5,349.14" style="stroke:#E7E7E7;stroke-width:1;"/></g><!--link Batch Processor to Message Queue--><g id="link_Batch Processor_Message Queue"><path d="M332.14,402.35 C343.89,408.98 356.45,416.18 368,422.99 C394.8,438.78 419.8999,454.2434 441.1799,467.5234 " fill="#FFFFFF" fill-opacity="0.00000" id="Batch Processor-to-Message Queue" style="stroke:#E7E7E7;stroke-width:1;"/><polygon fill="#E7E7E7" points="446.27,470.7,440.7525,462.5417,442.0282,468.0529,436.5171,469.3286,446.27,470.7" style="stroke:#E7E7E7;stroke-width:1;"/></g><!--link Message Queue to Transcoding Service--><g id="link_Message Queue_Transcoding Service"><path d="M451.87,470.61 C431.36,455.36 399.38,434.03 368,422.99 C297.85,398.29 275.04,415.97 202,401.99 C196.56,400.95 196.8364,401.0849 191.2264,399.8349 " fill="#FFFFFF" fill-opacity="0.00000" id="Message Queue-to-Transcoding Service" style="stroke:#E7E7E7;stroke-width:1;"/><polygon fill="#E7E7E7" points="185.37,398.53,193.2846,404.3916,190.2503,399.6174,195.0245,396.5831,185.37,398.53" style="stroke:#E7E7E7;stroke-width:1;"/></g><!--link Transcoding Service to Metadata Manager--><g id="link_Transcoding Service_Metadata Manager"><path d="M123.73,402.26 C137.71,420.38 152.7356,439.8389 166.6956,457.9389 " fill="#FFFFFF" fill-opacity="0.00000" id="Transcoding Service-to-Metadata Manager" style="stroke:#E7E7E7;stroke-width:1;"/><polygon fill="#E7E7E7" points="170.36,462.69,168.0308,453.1205,167.3064,458.7308,161.6961,458.0063,170.36,462.69" style="stroke:#E7E7E7;stroke-width:1;"/></g><!--link Metadata Manager to DB--><g id="link_Metadata Manager_DB"><path d="M266.43,515.41 C330.42,536.57 413.7835,564.126 466.3935,581.526 " fill="#FFFFFF" fill-opacity="0.00000" id="Metadata Manager-to-DB" style="stroke:#E7E7E7;stroke-width:1;"/><polygon fill="#E7E7E7" points="472.09,583.41,464.8012,576.7863,467.3429,581.84,462.2892,584.3816,472.09,583.41" style="stroke:#E7E7E7;stroke-width:1;"/></g><!--link Transcoding Service to STORAGE--><g id="link_Transcoding Service_STORAGE"><path d="M185.3,398.95 C190.93,400.1 196.53,401.13 202,401.99 C279.85,414.22 481.71,396.68 556,422.99 C579.44,431.29 597.6001,443.7057 614.4901,457.9257 " fill="#FFFFFF" fill-opacity="0.00000" id="Transcoding Service-to-STORAGE" style="stroke:#E7E7E7;stroke-width:1;"/><polygon fill="#E7E7E7" points="619.08,461.79,614.7714,452.9336,615.2551,458.5697,609.619,459.0535,619.08,461.79" style="stroke:#E7E7E7;stroke-width:1;"/></g><!--link User to Video Viewer--><g id="link_User_Video Viewer"><path d="M308.4,66.96 C324.44,88.79 344.9878,116.7445 359.6578,136.7145 " fill="#FFFFFF" fill-opacity="0.00000" id="User-to-Video Viewer" style="stroke:#E7E7E7;stroke-width:1;"/><polygon fill="#E7E7E7" points="363.21,141.55,361.1054,131.9286,360.2499,137.5204,354.6581,136.6649,363.21,141.55" style="stroke:#E7E7E7;stroke-width:1;"/></g><!--link Video Viewer to API Gateway--><g id="link_Video Viewer_API Gateway"><path d="M362.5,178.51 C346.83,198.9 324.7758,227.5923 309.1158,247.9723 " fill="#FFFFFF" fill-opacity="0.00000" id="Video Viewer-to-API Gateway" style="stroke:#E7E7E7;stroke-width:1;"/><polygon fill="#E7E7E7" points="305.46,252.73,314.1154,248.0307,308.5065,248.7653,307.7719,243.1563,305.46,252.73" style="stroke:#E7E7E7;stroke-width:1;"/></g><!--link API Gateway to DB--><g id="link_API Gateway_DB"><path d="M346.67,272.78 C441.51,277.04 634.63,301.08 721,422.99 C750.92,465.21 752.17,498.12 721,539.43 C701.66,565.06 620.2928,581.8603 566.0428,590.6503 " fill="#FFFFFF" fill-opacity="0.00000" id="API Gateway-to-DB" style="stroke:#E7E7E7;stroke-width:1;"/><polygon fill="#E7E7E7" points="560.12,591.61,569.6439,594.119,565.0556,590.8103,568.3644,586.222,560.12,591.61" style="stroke:#E7E7E7;stroke-width:1;"/></g><!--link API Gateway to STORAGE--><g id="link_API Gateway_STORAGE"><path d="M325.15,289.75 C375.81,316.83 475.13,371.14 556,422.99 C574.81,435.05 590.2381,445.8766 606.8681,458.0466 " fill="#FFFFFF" fill-opacity="0.00000" id="API Gateway-to-STORAGE" style="stroke:#E7E7E7;stroke-width:1;"/><polygon fill="#E7E7E7" points="611.71,461.59,606.8093,453.047,607.675,458.6372,602.0848,459.5029,611.71,461.59" style="stroke:#E7E7E7;stroke-width:1;"/></g><!--SRC=[ZPB1Re9048Rl-nHJxlO9Z0cec8QWLjHBus6wZ9GAksHthJ5DtxtBehKYDZtkpF__Ctp3GqhRN124YzbqEPwEm5iGSWEXaiAGI3tsS584_Z1oWgbCwV5TGu1yvnHCxt9HeS8Ik2mhAKYOn1mB0aNSeCWAOio6IWKhJOgn7zLbx2S3U5ddAKbOLON454AfoisbkixfG6h3ldxRppivjpz_WWaQEk3H-POAXUOopKK62QcFdDC6-lqmB2lA1eDQ4g3XRp1NafFMKjNj2BSxRBen6KpH8CGeC2FNZgN8v2Ym0hk8i2J0SmuO5djjI7c06Y8_ZFncgTW6MoyyxsbFRliwyHMrDPwod6KKiAqiKbBWXRabbrXQrkTwoNAsy2TZncfwqEiDEabrr1hj5PUhLzFlujIbQyDYx9QV4xQ-kVN-OoZhljafj7KCrd6VMcb9te-vY_ByUrq__mMm7dXJF0tw1W00]--></g></svg>